<?xml version="1.0" encoding="UTF-8"?>
<svg version="1.1" xmlns="http://www.w3.org/2000/svg" width="479" height="479">
<path d="M0 0 C158.07 0 316.14 0 479 0 C479 158.07 479 316.14 479 479 C320.93 479 162.86 479 0 479 C0 320.93 0 162.86 0 0 Z " fill="#0265A3" transform="translate(0,0)"/>
<path d="M0 0 C158.07 0 316.14 0 479 0 C479 158.07 479 316.14 479 479 C320.93 479 162.86 479 0 479 C0 320.93 0 162.86 0 0 Z M198 12 C196.67911377 12.24145752 196.67911377 12.24145752 195.33154297 12.48779297 C134.82804111 23.96658747 81.78087547 58.5390997 46.62695312 108.96972656 C25.26592738 140.68212765 12.11629989 176.20561558 7 214 C6.8242041 215.25611084 6.6484082 216.51222168 6.46728516 217.80639648 C5.95341342 221.97298843 5.82265675 226.0902451 5.796875 230.28515625 C5.78621758 231.43976852 5.78621758 231.43976852 5.77534485 232.6177063 C5.48622971 273.22090344 12.56422303 310.92727135 32 347 C32.34643555 347.65274902 32.69287109 348.30549805 33.04980469 348.97802734 C41.3919479 364.62813224 51.28844582 378.70231407 63 392 C63.60199219 392.71285156 64.20398438 393.42570312 64.82421875 394.16015625 C73.28150968 404.13279713 82.7052786 412.9612647 93 421 C93.96035156 421.77730469 94.92070313 422.55460937 95.91015625 423.35546875 C109.80678447 434.4060113 124.89700387 443.55154936 141 451 C141.94359375 451.44569336 141.94359375 451.44569336 142.90625 451.90039062 C197.22509629 477.44583166 261.47673889 480.15388039 318 460 C340.77106659 451.4437922 362.92302015 440.16730811 382 425 C382.825 424.36707031 383.65 423.73414063 384.5 423.08203125 C391.71695805 417.47269687 398.38917319 411.30141827 405 405 C405.49709473 404.52626953 405.99418945 404.05253906 406.50634766 403.56445312 C413.21729476 397.12230531 419.35693537 390.39308775 425 383 C425.48194824 382.37270996 425.96389648 381.74541992 426.46044922 381.09912109 C463.70412727 332.22622354 479.9644332 272.51676686 472.48339844 211.49316406 C466.40113951 167.73056935 447.94718874 125.47347643 419 92 C418.35289062 91.24203125 417.70578125 90.4840625 417.0390625 89.703125 C405.56197533 76.59901781 393.22187556 64.11060281 379 54 C378.3292041 53.52256348 377.6584082 53.04512695 376.96728516 52.55322266 C335.72914504 23.53658485 288.5175184 8.79308114 238.125 8.75 C237.40589447 8.74932526 236.68678894 8.74865051 235.94589233 8.74795532 C223.10804547 8.76693389 210.64407927 9.6529792 198 12 Z " fill="#FDFCFA" transform="translate(0,0)"/>
<path d="M0 0 C1.56041016 1.13501953 1.56041016 1.13501953 3.15234375 2.29296875 C10.22525774 7.53908266 16.7240287 13.27188404 23.125 19.3125 C25.3290717 21.3728279 27.54597664 23.33687367 29.875 25.25 C33.6818908 28.48261531 36.82084253 32.15851806 40 36 C40.42410156 36.50112305 40.84820312 37.00224609 41.28515625 37.51855469 C69.68841379 71.16336046 90.10841379 115.87070372 90.16796875 160.4765625 C90.17129715 161.36427338 90.17462555 162.25198425 90.17805481 163.16659546 C90.18309166 165.03732795 90.18546414 166.90806933 90.18530273 168.77880859 C90.18747775 171.59618504 90.20563678 174.41316195 90.22460938 177.23046875 C90.3573825 218.12707463 76.26624526 259.67007327 51 292 C50.34 292.33 49.68 292.66 49 293 C48.99635437 292.15190262 48.99270874 291.30380524 48.98895264 290.43000793 C48.95087154 282.38409858 48.89379381 274.33858632 48.81609726 266.29295826 C48.77681607 262.15793734 48.74453386 258.0231232 48.72900391 253.88793945 C48.7137082 249.88706623 48.6790393 245.88676228 48.63169098 241.88614464 C48.61700878 240.3702156 48.60896667 238.85420523 48.60811615 237.33820534 C48.5861825 217.82151966 42.3798492 201.86052182 28.6875 187.890625 C27 186 27 186 27 184 C27.94101562 183.89042969 28.88203125 183.78085938 29.8515625 183.66796875 C31.09679687 183.50941406 32.34203125 183.35085937 33.625 183.1875 C35.46964844 182.96126953 35.46964844 182.96126953 37.3515625 182.73046875 C42.37005685 181.72569526 45.84030955 180.22072679 49.375 176.5 C51.65276647 171.59404144 51.90895647 167.31937131 51 162 C49.35277824 158.46022557 47.08638984 156.48566026 43.4921875 154.87890625 C34.5887091 152.63809793 22.99759441 152.16719352 14.3359375 155.34375 C12.02205284 156.75742017 9.98472553 158.15782382 8 160 C7.56171875 159.11183594 7.1234375 158.22367188 6.671875 157.30859375 C-8.49369314 121.09710298 -8.49369314 121.09710298 -37.0234375 96.875 C-55.97825419 90.97601815 -76.61196872 90.84833401 -96.30859375 90.796875 C-97.06027391 90.79404762 -97.81195408 90.79122025 -98.58641243 90.78830719 C-102.57852633 90.77344273 -106.5706054 90.76413778 -110.56274414 90.75976562 C-113.78226295 90.75542036 -117.00150782 90.74166475 -120.22094727 90.71875 C-137.0316294 90.60174345 -153.72387281 90.76116703 -170.47265625 92.328125 C-171.73661728 92.44484558 -173.00057831 92.56156616 -174.30284119 92.68182373 C-189.24167872 94.22765351 -203.69719612 96.02647117 -214 108 C-214.49282471 108.57169922 -214.98564941 109.14339844 -215.4934082 109.73242188 C-220.90871131 116.32728817 -224.69208975 123.60404967 -228.5 131.1875 C-229.13064997 132.42556888 -229.76215745 133.66320134 -230.39453125 134.90039062 C-234.64802598 143.24071355 -238.82176391 151.6217997 -243 160 C-245.54509897 158.77726684 -247.71353054 157.51126798 -250.0625 155.90234375 C-254.83420954 153.16420658 -259.62976245 153.45062005 -265 153.5625 C-266.43859375 153.55186523 -266.43859375 153.55186523 -267.90625 153.54101562 C-273.68971663 153.59265372 -277.91364199 154.19211594 -283 157 C-286.14878675 160.39100112 -287.25628584 163.02459542 -287.4375 167.5625 C-287.27410893 171.44467186 -286.31094952 173.82244441 -284 177 C-284 177.66 -284 178.32 -284 179 C-282.34015202 179.68346682 -280.67163195 180.34588315 -279 181 C-278.154375 181.350625 -277.30875 181.70125 -276.4375 182.0625 C-271.36103651 183.44699004 -266.23791505 183.67792755 -261 184 C-261.845625 184.94875 -262.69125 185.8975 -263.5625 186.875 C-277.49266547 203.23065311 -283.52200311 219.01672536 -283.29296875 240.38671875 C-283.28736052 241.94041022 -283.28309624 243.49410707 -283.28010559 245.04780579 C-283.26875317 249.1002414 -283.23937113 253.15234483 -283.20599365 257.20465088 C-283.17508334 261.35448719 -283.16155586 265.50437816 -283.14648438 269.65429688 C-283.11449019 277.76968222 -283.06341311 285.88479957 -283 294 C-288.51712568 288.55666941 -288.51712568 288.55666941 -290.61328125 285.13671875 C-291.05260986 284.42290039 -291.49193848 283.70908203 -291.94458008 282.97363281 C-292.39599365 282.21920898 -292.84740723 281.46478516 -293.3125 280.6875 C-294.02925903 279.49979004 -294.02925903 279.49979004 -294.76049805 278.28808594 C-299.26670168 270.72267324 -303.27821389 262.97675534 -307 255 C-307.53238281 253.8759375 -308.06476563 252.751875 -308.61328125 251.59375 C-318.12333241 230.55859809 -324.08218675 206.72684735 -324.203125 183.6015625 C-324.20882507 182.72712494 -324.21452515 181.85268738 -324.22039795 180.95175171 C-324.22978705 179.10798324 -324.23635748 177.26419845 -324.24023438 175.42041016 C-324.24985441 172.66667461 -324.28090098 169.91371465 -324.3125 167.16015625 C-324.40855789 151.23072079 -322.43692264 135.96486627 -318.3125 120.5625 C-318.05903809 119.60786865 -317.80557617 118.6532373 -317.54443359 117.66967773 C-313.22796907 102.0208755 -306.64072217 87.28712968 -299 73 C-298.68595215 72.40525879 -298.3719043 71.81051758 -298.04833984 71.19775391 C-284.32773667 45.4121149 -263.66678169 22.06124971 -240 5 C-239.0112085 4.28529541 -239.0112085 4.28529541 -238.00244141 3.55615234 C-168.87357152 -45.77517145 -70.03678416 -51.30717474 0 0 Z " fill="#FCFCF9" transform="translate(357,69)"/>
<path d="M0 0 C4.268837 0.00261251 8.53767236 0.00016221 12.80650949 -0.00138617 C19.96446233 -0.00318326 27.1224047 -0.0008679 34.28035593 0.00395441 C42.43737421 0.00938797 50.59436743 0.0076308 58.75138509 0.00212801 C65.87961197 -0.0024797 73.00783151 -0.00301697 80.1360594 -0.00043333 C84.33865127 0.00108878 88.54123156 0.00144063 92.74382257 -0.00196981 C102.01577085 -0.00814398 111.28652112 0.02179218 120.55814981 0.1001687 C123.84372446 0.12693421 127.12899126 0.13887221 130.41467142 0.14211512 C134.73936503 0.14796041 139.06288133 0.1850253 143.38719249 0.24194598 C145.02219944 0.25876989 146.65734437 0.26573866 148.29243302 0.26175332 C162.40662393 0.23918562 172.63657314 3.72485691 183.03475046 13.63823175 C191.13810718 22.59678702 196.3727491 32.90399868 196.45369577 45.05107355 C196.46330332 46.2196641 196.47291086 47.38825464 196.48280954 48.59225702 C196.48918436 50.4751317 196.48918436 50.4751317 196.49568796 52.39604425 C196.50138803 53.69701548 196.50708811 54.9979867 196.51296091 56.33838129 C196.5234438 59.0912488 196.52930357 61.84408735 196.53279734 64.59697199 C196.53826395 68.09914852 196.56226361 71.60093274 196.59076929 75.10298681 C196.61404683 78.47149722 196.61585556 81.83995772 196.62068796 85.20854425 C196.63303476 86.45367289 196.64538157 87.69880152 196.65810251 88.98166132 C196.63105061 99.65740318 195.01784352 110.17303841 187.29256296 118.1343255 C176.54154923 125.16449398 163.15731419 125.52447281 150.70809031 126.24272394 C150.0051562 126.28464853 149.30222209 126.32657311 148.57798696 126.36976814 C130.22450319 127.43989812 111.8670333 127.42878934 93.48847866 127.40297651 C88.61656138 127.39779345 83.74465034 127.40264068 78.87273264 127.40574884 C70.70911383 127.40935156 62.54553163 127.40468588 54.38191843 127.39506769 C45.02446003 127.38416833 35.66708875 127.38773458 26.30963242 127.3987205 C18.17866858 127.40787384 10.04773053 127.40904046 1.91676319 127.40384316 C-2.89754336 127.40076998 -7.71180931 127.40018278 -12.52611303 127.40691614 C-46.61372034 127.44774504 -46.61372034 127.44774504 -62.94815969 126.30522394 C-63.97078091 126.23615965 -64.99340212 126.16709536 -66.04701185 126.09593821 C-76.79815524 125.21075881 -88.6308734 123.94110831 -96.70743704 116.1343255 C-98.75981192 113.2751202 -100.28667049 110.34753592 -101.70743704 107.1343255 C-102.11993704 106.2887005 -102.53243704 105.4430755 -102.95743704 104.5718255 C-105.10425486 97.59466758 -104.8548875 90.21114004 -104.84024954 82.985888 C-104.84120626 81.93331812 -104.84216299 80.88074823 -104.84314871 79.79628229 C-104.84382638 77.57921015 -104.84200102 75.36213597 -104.83780813 73.14506769 C-104.83246485 69.77685758 -104.83776171 66.40878145 -104.84415579 63.0405755 C-104.84349472 60.87651271 -104.84221298 58.71245001 -104.84024954 56.548388 C-104.84227377 55.55328211 -104.844298 54.55817621 -104.84638357 53.53291559 C-104.79124265 36.8368427 -101.21231986 24.77668895 -89.39884329 12.548388 C-81.79201397 5.72542644 -73.96655529 0.97818532 -63.65125418 0.72493219 C-62.61622129 0.69635917 -62.61622129 0.69635917 -61.56027865 0.66720891 C-59.27986311 0.60745367 -56.99942998 0.56203477 -54.71866751 0.51762629 C-53.09898982 0.47996702 -51.47931967 0.44198254 -49.85965681 0.40369081 C-33.2410933 0.03214945 -16.62197963 -0.01346703 0 0 Z " fill="#06B4E9" transform="translate(193.70743703842163,254.86567449569702)"/>
<path d="M0 0 C3.39303879 0.00462322 6.78571842 -0.00227427 10.17871094 -0.02050781 C26.83281553 -0.10904278 43.39216014 -0.0821273 59.97265625 1.64770508 C61.09995148 1.76417892 62.2272467 1.88065277 63.38870239 2.00065613 C72.14819597 3.0484601 78.49269204 4.9800243 84.98046875 11.31567383 C86.63728716 13.62648125 87.97259031 16.05049054 89.29296875 18.56567383 C89.66977783 19.25951172 90.04658691 19.95334961 90.43481445 20.66821289 C91.62972035 22.87731589 92.80574481 25.09578398 93.98046875 27.31567383 C94.76887762 28.78477479 95.55793594 30.25352742 96.34765625 31.72192383 C98.24023106 35.25449298 100.10719581 38.79963528 101.95800781 42.35424805 C102.62083389 43.62577257 103.28666775 44.89573549 103.95605469 46.16381836 C104.82664687 47.81425846 105.68520158 49.47103208 106.54296875 51.12817383 C107.01863281 52.04211914 107.49429688 52.95606445 107.984375 53.89770508 C108.98046875 56.31567383 108.98046875 56.31567383 108.98046875 60.31567383 C96.67512368 60.43055776 84.39565859 60.29589921 72.0965023 59.89054489 C50.9279851 59.20953699 29.76684828 59.15779624 8.58919144 59.18710327 C5.62398431 59.19072759 2.65878209 59.19230372 -0.306427 59.19335938 C-26.97837639 59.20515991 -53.62865096 59.3872433 -80.29078674 60.16213989 C-88.86617574 60.39466264 -97.44180341 60.3589259 -106.01953125 60.31567383 C-105.30578518 55.44181997 -103.91752467 51.59252491 -101.64453125 47.25317383 C-101.29656494 46.57633545 -100.94859863 45.89949707 -100.59008789 45.20214844 C-99.8232443 43.71437504 -99.05263792 42.2285367 -98.27880859 40.74438477 C-96.93067813 38.14430686 -95.60924144 35.53160827 -94.2890625 32.91723633 C-93.34584931 31.07047477 -92.40184726 29.22411589 -91.45703125 27.37817383 C-91.02277832 26.51506592 -90.58852539 25.65195801 -90.14111328 24.76269531 C-86.0343 16.82779445 -81.29844909 8.39177368 -73.01953125 4.31567383 C-70.26456207 3.75894047 -67.79624897 3.39535843 -65.01953125 3.19067383 C-60.19559594 2.78641159 -55.3786571 2.37120747 -50.57080078 1.80371094 C-33.74452871 -0.09406496 -16.90880609 -0.02504633 0 0 Z " fill="#06B4E8" transform="translate(238.01953125,179.684326171875)"/>
<path d="M0 0 C7.32801261 -0.15319282 14.6556065 -0.25764975 21.98486328 -0.32958984 C24.47362702 -0.35960606 26.96228638 -0.40043258 29.45068359 -0.45263672 C33.04551061 -0.52611815 36.63892922 -0.55961016 40.234375 -0.5859375 C41.33174988 -0.61690521 42.42912476 -0.64787292 43.55975342 -0.67977905 C55.31559754 -0.68480416 64.36419845 4.51653084 72.7421875 12.50390625 C80.84554422 21.46246151 86.08018614 31.76967317 86.16113281 43.91674805 C86.17074036 45.08533859 86.1803479 46.25392914 86.19024658 47.45793152 C86.1966214 49.3408062 86.1966214 49.3408062 86.203125 51.26171875 C86.20882507 52.56268997 86.21452515 53.86366119 86.22039795 55.20405579 C86.23088084 57.95692329 86.23674061 60.70976185 86.24023438 63.46264648 C86.24570099 66.96482302 86.26970065 70.46660724 86.29820633 73.96866131 C86.32148387 77.33717171 86.3232926 80.70563222 86.328125 84.07421875 C86.3404718 85.31934738 86.3528186 86.56447601 86.36553955 87.84733582 C86.33848765 98.52307767 84.72528056 109.03871291 77 117 C66.24898626 124.03016847 52.86475122 124.39014731 40.41552734 125.10839844 C39.71259324 125.15032302 39.00965913 125.19224761 38.28542399 125.23544264 C19.93194023 126.30557262 1.57447034 126.29446384 -16.8040843 126.26865101 C-21.67600158 126.26346794 -26.54791262 126.26831518 -31.41983032 126.27142334 C-39.58344913 126.27502605 -47.74703133 126.27036038 -55.91064453 126.26074219 C-65.26810293 126.24984283 -74.62547421 126.25340908 -83.98293054 126.264395 C-92.11389439 126.27354834 -100.24483243 126.27471496 -108.37579978 126.26951766 C-113.19010632 126.26644448 -118.00437227 126.26585728 -122.81867599 126.27259064 C-156.9062833 126.31341954 -156.9062833 126.31341954 -173.24072266 125.17089844 C-174.26334387 125.10183414 -175.28596508 125.03276985 -176.33957481 124.9616127 C-187.11512176 124.07442408 -198.88790332 122.79099285 -207 115 C-210.78073121 110.01052539 -212.60333204 105.21446468 -213 99 C-212.01 99.33 -211.02 99.66 -210 100 C-210 100.66 -210 101.32 -210 102 C-209.01 102 -208.02 102 -207 102 C-207 101.34 -207 100.68 -207 100 C-205.46875 98.7109375 -205.46875 98.7109375 -203.5 97.375 C-202.52546875 96.70597656 -202.52546875 96.70597656 -201.53125 96.0234375 C-200.77328125 95.51683594 -200.77328125 95.51683594 -200 95 C-198.875 98.75 -198.875 98.75 -200 101 C-200.66 101 -201.32 101 -202 101 C-201.34 101.66 -200.68 102.32 -200 103 C-199.01 103 -198.02 103 -197 103 C-196.67 102.34 -196.34 101.68 -196 101 C-194.33499557 100.65846063 -192.66821323 100.32550502 -191 100 C-190.01 99.01 -190.01 99.01 -189 98 C-189.38878188 94.98694043 -190.26456874 93.60314689 -192 91 C-190.35 89.68 -188.7 88.36 -187 87 C-186 90 -186 90 -186 93 C-185.34 91.68 -184.68 90.36 -184 89 C-182.68 90.32 -181.36 91.64 -180 93 C-180.99 93.495 -180.99 93.495 -182 94 C-182 94.66 -182 95.32 -182 96 C-179.52733235 95.65555119 -179.52733235 95.65555119 -177 95 C-176.67 94.34 -176.34 93.68 -176 93 C-175.34 93 -174.68 93 -174 93 C-173.34 91.68 -172.68 90.36 -172 89 C-171.01 89 -170.02 89 -169 89 C-168.01 88.67 -167.02 88.34 -166 88 C-165.67 87.34 -165.34 86.68 -165 86 C-164.34 86 -163.68 86 -163 86 C-163.33 88.64 -163.66 91.28 -164 94 C-164.99 94.33 -165.98 94.66 -167 95 C-167 95.66 -167 96.32 -167 97 C-165.35 97 -163.7 97 -162 97 C-162.495 93.535 -162.495 93.535 -163 90 C-162.34 89.67 -161.68 89.34 -161 89 C-161 89.66 -161 90.32 -161 91 C-160.01 91.495 -160.01 91.495 -159 92 C-159.33 93.65 -159.66 95.3 -160 97 C-159.01 97.66 -158.02 98.32 -157 99 C-165.2147651 99.16107383 -165.2147651 99.16107383 -168.4375 98.5 C-172.59107092 97.68954714 -176.78114623 97.92627246 -181 98 C-181.41646337 102.01301448 -181.41646337 102.01301448 -179 104.5 C-171.0717858 111.10684517 -161.788978 113.0124764 -151.7421875 114.0546875 C-150.57766556 114.17866409 -150.57766556 114.17866409 -149.38961792 114.30514526 C-140.31820517 115.22874002 -131.232708 115.72772747 -122.125 116.125 C-121.18790192 116.16669312 -120.25080383 116.20838623 -119.28530884 116.25134277 C-78.56259587 118.0056951 -37.6669099 117.84024447 3 115 C4.19802246 114.91991699 5.39604492 114.83983398 6.63037109 114.75732422 C29.71571099 114.13649256 29.71571099 114.13649256 50 105 C50.84111328 104.27296875 50.84111328 104.27296875 51.69921875 103.53125 C53.32371132 101.95379585 53.32371132 101.95379585 53 99 C43.81564743 95.93854914 32.81040345 99.02182027 23.50976562 100.40234375 C19.34504278 100.99200037 15.17873888 101.52075236 11 102 C10.17765869 102.0946051 9.35531738 102.18921021 8.50805664 102.28668213 C-13.91094492 104.72099571 -36.45409322 104.23484179 -58.96942139 104.1373291 C-64.28688949 104.11655332 -69.60437767 104.10766885 -74.921875 104.09765625 C-85.28130139 104.07646141 -95.64064061 104.04250893 -106 104 C-106 103.67 -106 103.34 -106 103 C-79.93 102.67 -53.86 102.34 -27 102 C-27 101.34 -27 100.68 -27 100 C-27.66 99.67 -28.32 99.34 -29 99 C-26.525 98.01 -26.525 98.01 -24 97 C-24 97.66 -24 98.32 -24 99 C-23.01 98.67 -22.02 98.34 -21 98 C-20.01 99.485 -20.01 99.485 -19 101 C-19 99.68 -19 98.36 -19 97 C-19.66 96.67 -20.32 96.34 -21 96 C-20.02149805 94.97895449 -19.02019573 93.9793879 -18 93 C-17.67 93 -17.34 93 -17 93 C-16.67 91.68 -16.34 90.36 -16 89 C-16.66 89 -17.32 89 -18 89 C-18 87.68 -18 86.36 -18 85 C-21.465 85.99 -21.465 85.99 -25 87 C-25 86.01 -25 85.02 -25 84 C-25.33 83.01 -25.66 82.02 -26 81 C-27.65 81 -29.3 81 -31 81 C-31 80.67 -31 80.34 -31 80 C-30.26136719 79.91363281 -29.52273438 79.82726562 -28.76171875 79.73828125 C-18.97692292 78.38308081 -7.0643378 75.22267038 -0.53125 67.1953125 C0.69547436 65.49834381 1.8540965 63.75255829 3 62 C3.33 63.32 3.66 64.64 4 66 C4.66386719 65.77183594 5.32773437 65.54367187 6.01171875 65.30859375 C6.89472656 65.02113281 7.77773438 64.73367188 8.6875 64.4375 C9.55761719 64.14746094 10.42773438 63.85742188 11.32421875 63.55859375 C14.24631074 62.94858039 16.14400553 63.22296367 19 64 C19.33 63.01 19.66 62.02 20 61 C20 61.66 20 62.32 20 63 C20.53625 63.103125 21.0725 63.20625 21.625 63.3125 C25.62700522 64.47097519 29.17030365 66.47902787 32.6875 68.6875 C41.14592885 72.03895294 50.6582332 69.90856583 59 67 C64.59360854 64.42675757 68.01053799 61.5006101 71 56 C72.6812733 50.95618009 73.11670548 45.60852052 70.98828125 40.63671875 C68.91341117 37.22844868 67.36591721 35.24394481 64 33 C64 32.34 64 31.68 64 31 C62.02 30.01 62.02 30.01 60 29 C61.98 28.505 61.98 28.505 64 28 C64 27.01 64 26.02 64 25 C64.99 24.67 65.98 24.34 67 24 C67 24.99 67 25.98 67 27 C67.99 26.67 68.98 26.34 70 26 C69.34 25.67 68.68 25.34 68 25 C68.33 24.01 68.66 23.02 69 22 C67.35 22.33 65.7 22.66 64 23 C64.66 21.68 65.32 20.36 66 19 C65.34 19 64.68 19 64 19 C64 18.34 64 17.68 64 17 C63.34 17 62.68 17 62 17 C62 16.34 62 15.68 62 15 C62.66 15 63.32 15 64 15 C64 14.34 64 13.68 64 13 C65.98 13 67.96 13 70 13 C68.35 11.68 66.7 10.36 65 9 C64.52949219 9.3609375 64.05898438 9.721875 63.57421875 10.09375 C62.95160156 10.5578125 62.32898438 11.021875 61.6875 11.5 C60.76517578 12.19609375 60.76517578 12.19609375 59.82421875 12.90625 C58 14 58 14 55 14 C54.67 14.66 54.34 15.32 54 16 C53.67 15.01 53.34 14.02 53 13 C54.485 12.505 54.485 12.505 56 12 C56 11.01 56 10.02 56 9 C55.34 9 54.68 9 54 9 C50 4.52941176 50 4.52941176 50 2 C49.15566406 2.01160156 48.31132812 2.02320313 47.44140625 2.03515625 C31.61932999 2.14669153 15.81104594 1.52596242 0 1 C0 0.67 0 0.34 0 0 Z M-159 90 C-157 91 -157 91 -157 91 Z " fill="#06B5E9" transform="translate(304,256)"/>
<path d="M0 0 C62.7 0 125.4 0 190 0 C190.99 5.94 190.99 5.94 192 12 C194.08510284 16.85542798 194.08510284 16.85542798 198 20 C198 20.66 198 21.32 198 22 C150.38595109 49.36513952 93.5033497 56.39911968 40.5 42.1875 C24.56257044 37.65738458 9.64543769 31.72213987 -5 24 C-6.33119661 23.32907691 -7.66333346 22.65995817 -9 22 C-9 21.34 -9 20.68 -9 20 C-8.236875 19.29875 -7.47375 18.5975 -6.6875 17.875 C-1.67321435 12.51088047 -1.03165671 7.22159699 0 0 Z " fill="#FCFCFA" transform="translate(145,398)"/>
<path d="M0 0 C-3.41574743 1.88507613 -6.88058902 2.92513306 -10.625 3.99609375 C-11.97167773 4.38735098 -13.31810269 4.779479 -14.66430664 5.17236328 C-15.72441452 5.4808017 -15.72441452 5.4808017 -16.80593872 5.79547119 C-38.9804897 12.28421455 -60.59332218 20.05728871 -81 31 C-82.21864845 31.61865814 -83.43872365 32.23451326 -84.66015625 32.84765625 C-99.68879409 40.48162678 -116.46307904 50.04247166 -127.51171875 62.9296875 C-132.35281924 68.50165668 -136.07862983 71.82944381 -143.5625 72.5 C-145.81654107 72.65254674 -148.06836599 72.76397357 -150.32568359 72.85644531 C-155.69552579 73.14469319 -161.03172526 73.78370337 -166.375 74.375 C-167.45595947 74.47748047 -168.53691895 74.57996094 -169.65063477 74.68554688 C-180.81721315 75.87007546 -190.07033953 79.15446136 -199 86 C-199.72832031 86.54011719 -200.45664063 87.08023438 -201.20703125 87.63671875 C-213.27800575 97.38228661 -219.8908923 112.13763105 -226.53417969 125.78295898 C-227.31776855 127.35605835 -227.31776855 127.35605835 -228.1171875 128.9609375 C-228.80723877 130.38092041 -228.80723877 130.38092041 -229.51123047 131.82958984 C-231 134 -231 134 -232.98266602 134.84204102 C-236.0509388 135.08228941 -238.95959145 134.44848346 -242 134 C-245.14713451 133.87908773 -248.28863519 133.90451431 -251.4375 133.9375 C-252.67790039 133.94426758 -252.67790039 133.94426758 -253.94335938 133.95117188 C-255.96227146 133.96284189 -257.98114574 133.98077282 -260 134 C-259.3694295 129.39061849 -257.52008582 125.54090003 -255.4375 121.4375 C-255.08107422 120.73222168 -254.72464844 120.02694336 -254.35742188 119.30029297 C-246.98606079 105.0012775 -236.95015441 92.69992613 -226 81 C-224.69289063 79.59427734 -224.69289063 79.59427734 -223.359375 78.16015625 C-179.37690802 31.95024445 -111.10259603 10.86766311 -50 2 C-48.68177246 1.80083984 -48.68177246 1.80083984 -47.33691406 1.59765625 C-31.66657164 -0.71042894 -15.79628214 -0.19705563 0 0 Z " fill="#FE9407" transform="translate(341,77)"/>
<path d="M0 0 C0 0.33 0 0.66 0 1 C2.64554766 1.17327564 5.29113436 1.3399897 7.9375 1.5 C8.74058594 1.54914551 9.54367187 1.59829102 10.37109375 1.64892578 C16.82171969 2.0105136 23.23518218 2.0460679 29.69116211 1.78710938 C31.71875 1.7421875 31.71875 1.7421875 35 2 C35.99 3.485 35.99 3.485 37 5 C36.67 5.33 36.34 5.66 36 6 C36.99 6.66 37.98 7.32 39 8 C39 8.66 39 9.32 39 10 C39.66 10 40.32 10 41 10 C41 10.99 41 11.98 41 13 C40.34 13.66 39.68 14.32 39 15 C40.4835001 14.57742724 41.96176424 14.13643678 43.4375 13.6875 C44.26121094 13.44386719 45.08492187 13.20023437 45.93359375 12.94921875 C46.61550781 12.63597656 47.29742187 12.32273437 48 12 C48.33 11.01 48.66 10.02 49 9 C52.26460973 10.80412643 53.88929795 11.83394693 56 15 C54.02 14.505 54.02 14.505 52 14 C51.67 14.66 51.34 15.32 51 16 C51 15.34 51 14.68 51 14 C50.34 14 49.68 14 49 14 C49 14.66 49 15.32 49 16 C48.34 16 47.68 16 47 16 C47 16.66 47 17.32 47 18 C47.66 18 48.32 18 49 18 C49 18.66 49 19.32 49 20 C49.66 20 50.32 20 51 20 C50.67 20.99 50.34 21.98 50 23 C51.32 23 52.64 23 54 23 C54.33 23.99 54.66 24.98 55 26 C55.99 26.99 55.99 26.99 57 28 C55.35 28 53.7 28 52 28 C52 27.01 52 26.02 52 25 C51.34 25.33 50.68 25.66 50 26 C50.33 26.66 50.66 27.32 51 28 C50.34 28.66 49.68 29.32 49 30 C48.01 30 47.02 30 46 30 C46.61488281 30.50789063 47.22976563 31.01578125 47.86328125 31.5390625 C57.43192163 39.68843087 57.43192163 39.68843087 58.3046875 46.3125 C58.62007502 52.39762389 57.5624243 57.02373855 54 62 C46.71270556 69.63430846 36.74306821 71.91913373 26.5 72.25 C21.87538279 72.21245236 19.00696977 71.42281893 15 69 C13.906875 68.649375 12.81375 68.29875 11.6875 67.9375 C9 67 9 67 8 65 C4.26921798 64.83397264 4.26921798 64.83397264 1.8125 65.5625 C0.9153125 65.7790625 0.9153125 65.7790625 0 66 C-0.33 65.67 -0.66 65.34 -1 65 C-1.86625 65.309375 -2.7325 65.61875 -3.625 65.9375 C-6.76150738 66.92491899 -9.75067413 67.53581059 -13 68 C-12.34 67.67 -11.68 67.34 -11 67 C-11.165 66.21625 -11.33 65.4325 -11.5 64.625 C-12.03367162 60.75588073 -11.94535035 57.1595023 -11.7421875 53.26953125 C-11.81424377 50.97832825 -11.81424377 50.97832825 -13.16870117 49.38574219 C-15.6845188 47.48202524 -17.42261569 47.60090678 -20.55859375 47.55859375 C-21.66783203 47.53216797 -22.77707031 47.50574219 -23.91992188 47.47851562 C-25.66112305 47.45821289 -25.66112305 47.45821289 -27.4375 47.4375 C-36.15222735 47.30281332 -44.43684959 46.68265565 -53 45 C-49.375 42 -49.375 42 -46 42 C-46 41.34 -46 40.68 -46 40 C-45.34 40 -44.68 40 -44 40 C-42.74335022 37.09399739 -42 35.20395416 -42 32 C-42 30 -42 28 -42 26 C-42.66 26.33 -43.32 26.66 -44 27 C-42.87548273 24.0280615 -41.77706209 21.66559313 -40 19 C-40.495 17.515 -40.495 17.515 -41 16 C-40.0625 13.8125 -40.0625 13.8125 -39 12 C-40.65 12.33 -42.3 12.66 -44 13 C-45.4606285 10.35261084 -46 9.10551666 -46 6 C-46.66 6.66 -47.32 7.32 -48 8 C-47.01 10.97 -47.01 10.97 -46 14 C-46.66 14.33 -47.32 14.66 -48 15 C-48.28875 15.61875 -48.5775 16.2375 -48.875 16.875 C-50.19484089 19.36803279 -51.7544065 20.35323143 -54 22 C-54 22.66 -54 23.32 -54 24 C-54.99 24.66 -55.98 25.32 -57 26 C-56.34 26.66 -55.68 27.32 -55 28 C-56.32 28 -57.64 28 -59 28 C-59 27.01 -59 26.02 -59 25 C-59.66 25 -60.32 25 -61 25 C-61 25.99 -61 26.98 -61 28 C-65.75 26.125 -65.75 26.125 -68 25 C-68 26.65 -68 28.3 -68 30 C-70 30 -70 30 -71.75 28.375 C-73 26 -73 26 -72.25 23 C-71.8375 22.01 -71.425 21.02 -71 20 C-70.65023242 18.67088318 -70.30903983 17.33917261 -70 16 C-71.32 16.33 -72.64 16.66 -74 17 C-74.33 18.32 -74.66 19.64 -75 21 C-75.66 20.01 -76.32 19.02 -77 18 C-77.66 17.67 -78.32 17.34 -79 17 C-78.67 15.35 -78.34 13.7 -78 12 C-79.89179203 11.3185177 -79.89179203 11.3185177 -82 11 C-82.66 11.66 -83.32 12.32 -84 13 C-84.66 12.01 -85.32 11.02 -86 10 C-85.67 9.34 -85.34 8.68 -85 8 C-85.66 7.67 -86.32 7.34 -87 7 C-87.33 7.33 -87.66 7.66 -88 8 C-88.66 8.66 -89.32 9.32 -90 10 C-90 9.01 -90 8.02 -90 7 C-90.45375 7.495 -90.9075 7.99 -91.375 8.5 C-93 10 -93 10 -95 10 C-95.268125 9.21625 -95.53625 8.4325 -95.8125 7.625 C-96.84814432 4.71885077 -96.84814432 4.71885077 -100 3 C-100.66 4.65 -101.32 6.3 -102 8 C-103.32 7.01 -104.64 6.02 -106 5 C-105.67 4.01 -105.34 3.02 -105 2 C-106.65 2.33 -108.3 2.66 -110 3 C-109.649375 3.94875 -109.29875 4.8975 -108.9375 5.875 C-108 9 -108 9 -109 11 C-112.375 11.125 -112.375 11.125 -116 11 C-116.66 10.34 -117.32 9.68 -118 9 C-117.34 8.67 -116.68 8.34 -116 8 C-116.83333333 5.83333333 -116.83333333 5.83333333 -119 5 C-118.34 3.68 -117.68 2.36 -117 1 C-105.58413184 0.86785886 -94.16824603 0.73736893 -82.7523365 0.60884857 C-77.44848854 0.5490889 -72.14464764 0.48881142 -66.84082031 0.42724609 C-21.1505271 -0.10239907 -21.1505271 -0.10239907 0 0 Z M-115 4 C-114 6 -114 6 -114 6 Z " fill="#06B3E8" transform="translate(319,255)"/>
<path d="M0 0 C1.07398041 -0.0071553 2.14796082 -0.01431061 3.25448608 -0.02168274 C4.43790588 -0.02437164 5.62132568 -0.02706055 6.84060669 -0.02983093 C8.70409256 -0.03968773 8.70409256 -0.03968773 10.60522461 -0.04974365 C14.01850154 -0.06609903 17.43171644 -0.07770551 20.84501791 -0.08594918 C22.976791 -0.09109832 25.10855973 -0.09717405 27.24032974 -0.10346031 C33.90811998 -0.12251167 40.57589913 -0.13674369 47.24371135 -0.14507228 C54.94458984 -0.15484975 62.64518128 -0.18118243 70.34595859 -0.22157317 C76.29590854 -0.25171175 82.24577609 -0.26653893 88.1958009 -0.26985329 C91.7507183 -0.27220612 95.30532901 -0.28119619 98.86016464 -0.30631447 C102.82509352 -0.33387804 106.78964311 -0.32977094 110.75466919 -0.32279968 C111.93404053 -0.33560974 113.11341187 -0.3484198 114.32852173 -0.36161804 C115.40814178 -0.35467422 116.48776184 -0.34773041 117.60009766 -0.34057617 C118.53772886 -0.34296453 119.47536007 -0.34535288 120.44140434 -0.34781361 C123.68550223 0.29821166 124.88097027 1.60435463 126.92703247 4.14717102 C128.25156584 9.87383 127.07922408 15.37133455 124.18484497 20.40107727 C120.3342438 25.74647704 114.79981603 28.55590429 108.92703247 31.14717102 C107.87781616 31.63552429 107.87781616 31.63552429 106.80740356 32.13374329 C103.1835316 33.40876384 99.61275712 33.86912511 95.81375122 34.25654602 C94.99452682 34.34063721 94.17530243 34.42472839 93.33125305 34.5113678 C82.67430429 35.48991996 71.99434081 35.44624216 61.30130005 35.40791321 C57.73431532 35.39715529 54.16783053 35.40789118 50.6008606 35.42060852 C8.71396012 35.44607356 8.71396012 35.44607356 -4.07296753 24.14717102 C-8.56837444 18.48231458 -10.57817615 13.47269606 -10.07296753 6.14717102 C-7.51463894 0.79793851 -5.73779669 0.02617245 0 0 Z " fill="#0065A4" transform="translate(181.07296752929688,301.8528289794922)"/>
<path d="M0 0 C-1 3 -1 3 -3 5 C-2.95875 5.78375 -2.9175 6.5675 -2.875 7.375 C-3 10 -3 10 -4.8125 12.3125 C-7 14 -7 14 -10 14 C-10.99 11.525 -10.99 11.525 -12 9 C-11.34 8.67 -10.68 8.34 -10 8 C-10.99 8 -11.98 8 -13 8 C-12.9278125 8.84304688 -12.855625 9.68609375 -12.78125 10.5546875 C-12.6884375 11.65039062 -12.595625 12.74609375 -12.5 13.875 C-12.4071875 14.96554687 -12.314375 16.05609375 -12.21875 17.1796875 C-12.09437042 18.78329564 -12 20.39157551 -12 22 C-11.34 22 -10.68 22 -10 22 C-10.66 23.65 -11.32 25.3 -12 27 C-15.10551666 27 -16.35261084 26.4606285 -19 25 C-19.495 26.485 -19.495 26.485 -20 28 C-22.0625 28.6875 -22.0625 28.6875 -24 29 C-23.505 29.99 -23.505 29.99 -23 31 C-21.35 30.01 -19.7 29.02 -18 28 C-18.45292125 32.71038103 -19.08465561 35.32413099 -22 39 C-22 40.32 -22 41.64 -22 43 C-22.66 42.67 -23.32 42.34 -24 42 C-24.433125 42.433125 -24.86625 42.86625 -25.3125 43.3125 C-26.875 44.875 -28.4375 46.4375 -30 48 C-29.67 47.67 -29.34 47.34 -29 47 C-28.34 47.66 -27.68 48.32 -27 49 C-27.66 49.99 -28.32 50.98 -29 52 C-29.99 52 -30.98 52 -32 52 C-32.66 53.32 -33.32 54.64 -34 56 C-33.34 56 -32.68 56 -32 56 C-32 56.66 -32 57.32 -32 58 C-33.65 58 -35.3 58 -37 58 C-37.30292969 58.68707031 -37.60585937 59.37414062 -37.91796875 60.08203125 C-42.14836474 69.18063678 -42.14836474 69.18063678 -47 71 C-56.3009055 73.92314173 -66.96974962 72.00110135 -75.51953125 67.74609375 C-80.78330881 64.54243477 -84.94297221 60.93373401 -87 55 C-87.84554148 49.26239711 -87.83988095 44.65080049 -85.1875 39.4375 C-84.465625 38.633125 -83.74375 37.82875 -83 37 C-82.505 36.4225 -82.01 35.845 -81.5 35.25 C-79.77523659 33.81269716 -78.02896923 32.95107933 -76 32 C-75.01 31.34 -74.02 30.68 -73 30 C-73.66 29.01 -74.32 28.02 -75 27 C-74.34 27 -73.68 27 -73 27 C-73 25.02 -73 23.04 -73 21 C-73.12375 21.61875 -73.2475 22.2375 -73.375 22.875 C-74 25 -74 25 -76 27 C-76 27.66 -76 28.32 -76 29 C-82.75 29.125 -82.75 29.125 -85 28 C-85 28.66 -85 29.32 -85 30 C-85.66 30 -86.32 30 -87 30 C-87 31.98 -87 33.96 -87 36 C-87.99 36 -88.98 36 -90 36 C-90.33 37.32 -90.66 38.64 -91 40 C-93.31 40.66 -95.62 41.32 -98 42 C-97.38992042 34.55702918 -97.38992042 34.55702918 -95.6875 32.125 C-93.85328264 30.90218843 -92.01122949 29.90158563 -90 29 C-89.67 29.66 -89.34 30.32 -89 31 C-89 29.35 -89 27.7 -89 26 C-88.401875 25.855625 -87.80375 25.71125 -87.1875 25.5625 C-85.43849596 25.1127561 -83.71322977 24.57107659 -82 24 C-80.89459074 21.21081851 -80.89459074 21.21081851 -81 19 C-80 17 -80 17 -77 16 C-79.475 14.515 -79.475 14.515 -82 13 C-78.10699253 8.74202308 -73.93570404 5.94283609 -69 3 C-68.01 2.34 -67.02 1.68 -66 1 C-62.83081055 0.68115234 -62.83081055 0.68115234 -58.88671875 0.5859375 C-58.17230118 0.56652603 -57.45788361 0.54711456 -56.72181702 0.52711487 C-54.37716724 0.4665175 -52.03249029 0.42035644 -49.6875 0.375 C-48.07127907 0.33709364 -46.45506811 0.29875986 -44.83886719 0.26000977 C-29.89303045 -0.07803692 -14.94895274 -0.10868925 0 0 Z " fill="#06B3E8" transform="translate(189,255)"/>
<path d="M0 0 C1.3921875 1.3921875 1.3921875 1.3921875 2.8125 2.8125 C3.54533203 3.52792969 3.54533203 3.52792969 4.29296875 4.2578125 C5.48363518 5.42513253 6.65065869 6.61648689 7.8125 7.8125 C5.4418221 10.48845928 3.05456353 11.83029141 -0.16796875 13.34375 C-1.65514404 14.0562793 -1.65514404 14.0562793 -3.17236328 14.78320312 C-4.2292334 15.28787109 -5.28610352 15.79253906 -6.375 16.3125 C-16.66136689 21.35234518 -26.14192529 26.78332953 -35.1875 33.8125 C-35.79770996 34.28655273 -36.40791992 34.76060547 -37.03662109 35.24902344 C-46.71877347 42.899687 -56.23147347 51.64089316 -62.33154297 62.5065918 C-62.94400879 63.5975415 -63.55647461 64.68849121 -64.1875 65.8125 C-65.45803223 65.61551514 -66.72856445 65.41853027 -68.03759766 65.21557617 C-83.18366368 62.95960563 -98.27807965 61.90895317 -113.5625 61.125 C-115.96749241 60.99496092 -118.37244084 60.86410573 -120.77734375 60.73242188 C-126.58025811 60.416413 -132.38362526 60.11032237 -138.1875 59.8125 C-135.01262637 55.97245399 -131.95888498 52.32640376 -127.96484375 49.3046875 C-127.18979492 48.71695557 -126.41474609 48.12922363 -125.61621094 47.52368164 C-124.38306152 46.61477173 -124.38306152 46.61477173 -123.125 45.6875 C-122.25520508 45.04224365 -121.38541016 44.3969873 -120.48925781 43.73217773 C-106.26287407 33.33234995 -91.2426059 24.10365058 -75.1875 16.8125 C-74.45885742 16.47911621 -73.73021484 16.14573242 -72.97949219 15.80224609 C-56.77849258 8.47223969 -40.34842869 3.50050671 -22.9375 -0.0625 C-21.88997559 -0.27801514 -20.84245117 -0.49353027 -19.76318359 -0.71557617 C-5.17675538 -3.55267526 -5.17675538 -3.55267526 0 0 Z " fill="#FE9508" transform="translate(380.1875,87.1875)"/>
<path d="M0 0 C1.01495544 -0.00058411 2.02991089 -0.00116821 3.07562256 -0.00177002 C6.43064566 0.00101686 9.78478053 0.03213843 13.13964844 0.06347656 C15.46563227 0.07093678 17.79162238 0.07663074 20.11761475 0.08062744 C26.23996327 0.09590091 32.36193229 0.13519803 38.48413086 0.17944336 C44.73123033 0.2203588 50.97839111 0.23863052 57.22558594 0.25878906 C69.48356519 0.30169018 81.74126276 0.36996265 93.99902344 0.45410156 C93.99902344 0.78410156 93.99902344 1.11410156 93.99902344 1.45410156 C63.96902344 1.78410156 33.93902344 2.11410156 2.99902344 2.45410156 C2.99902344 3.44410156 2.99902344 4.43410156 2.99902344 5.45410156 C3.65902344 5.78410156 4.31902344 6.11410156 4.99902344 6.45410156 C4.66902344 7.77410156 4.33902344 9.09410156 3.99902344 10.45410156 C6.30902344 10.45410156 8.61902344 10.45410156 10.99902344 10.45410156 C10.50402344 9.95910156 10.50402344 9.95910156 9.99902344 9.45410156 C10.28507242 7.77867181 10.61683577 6.11024814 10.99902344 4.45410156 C10.33902344 4.12410156 9.67902344 3.79410156 8.99902344 3.45410156 C11.07455992 2.90062517 12.84268308 2.45410156 14.99902344 2.45410156 C15.21558594 3.41316406 15.21558594 3.41316406 15.43652344 4.39160156 C15.80909525 6.42955302 15.80909525 6.42955302 16.99902344 7.45410156 C17.98902344 5.80410156 18.97902344 4.15410156 19.99902344 2.45410156 C22.51274541 3.71096255 23.48202011 5.10964187 24.99902344 7.45410156 C24.99902344 8.44410156 24.99902344 9.43410156 24.99902344 10.45410156 C25.65902344 9.79410156 26.31902344 9.13410156 26.99902344 8.45410156 C27.98902344 8.12410156 28.97902344 7.79410156 29.99902344 7.45410156 C30.49402344 7.94910156 30.49402344 7.94910156 30.99902344 8.45410156 C31.32902344 7.79410156 31.65902344 7.13410156 31.99902344 6.45410156 C34.78294174 7.84606071 34.97801341 9.60985935 35.99902344 12.45410156 C36.98902344 11.79410156 37.97902344 11.13410156 38.99902344 10.45410156 C40.31902344 11.11410156 41.63902344 11.77410156 42.99902344 12.45410156 C42.66902344 13.77410156 42.33902344 15.09410156 41.99902344 16.45410156 C45.00175099 17.41926399 47.04118113 17.67803631 49.99902344 16.45410156 C50.32902344 15.46410156 50.65902344 14.47410156 50.99902344 13.45410156 C51.49402344 15.43410156 51.49402344 15.43410156 51.99902344 17.45410156 C51.33902344 17.45410156 50.67902344 17.45410156 49.99902344 17.45410156 C50.04027344 18.19660156 50.08152344 18.93910156 50.12402344 19.70410156 C49.99902344 22.45410156 49.99902344 22.45410156 48.87402344 24.51660156 C48.58527344 25.15597656 48.29652344 25.79535156 47.99902344 26.45410156 C48.78211811 28.68880561 48.78211811 28.68880561 49.99902344 30.45410156 C50.98902344 27.97910156 50.98902344 27.97910156 51.99902344 25.45410156 C56.74902344 27.32910156 56.74902344 27.32910156 58.99902344 28.45410156 C58.99902344 27.46410156 58.99902344 26.47410156 58.99902344 25.45410156 C59.65902344 25.45410156 60.31902344 25.45410156 60.99902344 25.45410156 C60.99902344 26.44410156 60.99902344 27.43410156 60.99902344 28.45410156 C61.45277344 27.79410156 61.90652344 27.13410156 62.37402344 26.45410156 C62.91027344 25.79410156 63.44652344 25.13410156 63.99902344 24.45410156 C64.65902344 24.45410156 65.31902344 24.45410156 65.99902344 24.45410156 C65.50402344 22.96910156 65.50402344 22.96910156 64.99902344 21.45410156 C65.98902344 21.12410156 66.97902344 20.79410156 67.99902344 20.45410156 C68.66157585 19.12899674 69.30771946 17.79555005 69.93652344 16.45410156 C70.99902344 14.45410156 70.99902344 14.45410156 72.99902344 12.45410156 C72.00902344 9.97910156 72.00902344 9.97910156 70.99902344 7.45410156 C71.65902344 7.12410156 72.31902344 6.79410156 72.99902344 6.45410156 C74.13252877 4.43740329 74.13252877 4.43740329 74.99902344 2.45410156 C74.93391927 4.47233073 74.8688151 6.4905599 74.80371094 8.50878906 C74.81570655 10.69273801 74.81570655 10.69273801 76.99902344 12.45410156 C79.1072314 12.13558386 79.1072314 12.13558386 80.99902344 11.45410156 C80.99902344 14.10475976 80.63076641 15.92712969 79.99902344 18.45410156 C79.99902344 19.44410156 79.99902344 20.43410156 79.99902344 21.45410156 C78.99902344 23.64160156 78.99902344 23.64160156 77.99902344 25.45410156 C78.32902344 25.45410156 78.65902344 25.45410156 78.99902344 25.45410156 C78.99902344 36.18487079 78.99902344 36.18487079 75.99902344 40.45410156 C75.33902344 40.45410156 74.67902344 40.45410156 73.99902344 40.45410156 C74.32902344 41.44410156 74.65902344 42.43410156 74.99902344 43.45410156 C73.67902344 43.78410156 72.35902344 44.11410156 70.99902344 44.45410156 C72.14371094 44.63972656 72.14371094 44.63972656 73.31152344 44.82910156 C75.99902344 45.45410156 75.99902344 45.45410156 78.99902344 47.45410156 C77.7278215 47.46218842 76.45661957 47.47027527 75.14689636 47.47860718 C63.18351415 47.55599692 51.22024667 47.64371796 39.25701427 47.74162865 C33.10618037 47.79163484 26.95536401 47.83796451 20.80444336 47.87597656 C14.87161252 47.9127747 8.93892691 47.95911974 3.00621986 48.01216507 C0.73957166 48.03073814 -1.5271077 48.04583525 -3.79380226 48.05744553 C-6.96172677 48.07425808 -10.12931653 48.10328115 -13.29711914 48.13525391 C-14.24010864 48.13741409 -15.18309814 48.13957428 -16.15466309 48.14179993 C-17.44821465 48.15854515 -17.44821465 48.15854515 -18.76789856 48.17562866 C-19.51731626 48.18115942 -20.26673395 48.18669018 -21.03886127 48.19238853 C-23.32212031 48.35054707 -23.32212031 48.35054707 -26.00097656 50.45410156 C-26.79895874 52.87017573 -26.79895874 52.87017573 -27.18847656 55.57910156 C-27.42630859 56.94421875 -27.42630859 56.94421875 -27.66894531 58.33691406 C-27.83330078 59.38492188 -27.83330078 59.38492188 -28.00097656 60.45410156 C-28.66097656 59.46410156 -29.32097656 58.47410156 -30.00097656 57.45410156 C-30.99097656 57.94910156 -30.99097656 57.94910156 -32.00097656 58.45410156 C-32.66097656 58.12410156 -33.32097656 57.79410156 -34.00097656 57.45410156 C-34.33097656 58.11410156 -34.66097656 58.77410156 -35.00097656 59.45410156 C-35.66764323 60.7874349 -36.3343099 62.12076823 -37.00097656 63.45410156 C-39.93066406 63.40527344 -39.93066406 63.40527344 -42.86035156 63.35644531 C-45.34096832 63.398799 -45.34096832 63.398799 -49.00097656 64.45410156 C-48.67097656 60.82410156 -48.34097656 57.19410156 -48.00097656 53.45410156 C-47.67097656 53.45410156 -47.34097656 53.45410156 -47.00097656 53.45410156 C-47.00097656 55.10410156 -47.00097656 56.75410156 -47.00097656 58.45410156 C-45.51597656 57.95910156 -45.51597656 57.95910156 -44.00097656 57.45410156 C-43.34097656 57.78410156 -42.68097656 58.11410156 -42.00097656 58.45410156 C-42.00097656 57.79410156 -42.00097656 57.13410156 -42.00097656 56.45410156 C-42.66097656 56.45410156 -43.32097656 56.45410156 -44.00097656 56.45410156 C-43.81347656 54.07910156 -43.81347656 54.07910156 -43.00097656 51.45410156 C-40.43847656 50.14160156 -40.43847656 50.14160156 -38.00097656 49.45410156 C-38.33097656 49.45410156 -38.66097656 49.45410156 -39.00097656 49.45410156 C-39.99097656 49.12410156 -40.98097656 48.79410156 -42.00097656 48.45410156 C-41.34097656 48.45410156 -40.68097656 48.45410156 -40.00097656 48.45410156 C-39.77410156 47.85597656 -39.54722656 47.25785156 -39.31347656 46.64160156 C-38.00097656 44.45410156 -38.00097656 44.45410156 -35.37597656 42.89160156 C-34.59222656 42.41722656 -33.80847656 41.94285156 -33.00097656 41.45410156 C-33.00097656 40.46410156 -33.00097656 39.47410156 -33.00097656 38.45410156 C-32.52660156 38.02097656 -32.05222656 37.58785156 -31.56347656 37.14160156 C-29.37996674 34.78341096 -29.34830705 32.58007595 -29.00097656 29.45410156 C-31.47597656 30.93910156 -31.47597656 30.93910156 -34.00097656 32.45410156 C-34.00097656 31.46410156 -34.00097656 30.47410156 -34.00097656 29.45410156 C-33.36160156 29.16535156 -32.72222656 28.87660156 -32.06347656 28.57910156 C-29.84891577 27.62586705 -29.84891577 27.62586705 -29.00097656 25.45410156 C-27.02097656 26.11410156 -25.04097656 26.77410156 -23.00097656 27.45410156 C-22.01097656 25.80410156 -21.02097656 24.15410156 -20.00097656 22.45410156 C-20.66097656 22.45410156 -21.32097656 22.45410156 -22.00097656 22.45410156 C-22.00097656 21.79410156 -22.00097656 21.13410156 -22.00097656 20.45410156 C-22.66097656 20.12410156 -23.32097656 19.79410156 -24.00097656 19.45410156 C-24.00097656 18.79410156 -24.00097656 18.13410156 -24.00097656 17.45410156 C-23.34097656 17.45410156 -22.68097656 17.45410156 -22.00097656 17.45410156 C-22.35160156 16.34035156 -22.70222656 15.22660156 -23.06347656 14.07910156 C-24.00097656 10.45410156 -24.00097656 10.45410156 -23.00097656 8.45410156 C-20.93847656 7.82910156 -20.93847656 7.82910156 -19.00097656 7.45410156 C-19.33097656 8.44410156 -19.66097656 9.43410156 -20.00097656 10.45410156 C-20.00097656 10.78410156 -20.00097656 11.11410156 -20.00097656 11.45410156 C-20.00097656 12.44410156 -20.00097656 13.43410156 -20.00097656 14.45410156 C-19.01097656 14.45410156 -18.02097656 14.45410156 -17.00097656 14.45410156 C-16.67097656 13.46410156 -16.34097656 12.47410156 -16.00097656 11.45410156 C-15.34097656 10.79410156 -14.68097656 10.13410156 -14.00097656 9.45410156 C-14.04222656 8.67035156 -14.08347656 7.88660156 -14.12597656 7.07910156 C-14.00097656 4.45410156 -14.00097656 4.45410156 -12.6182251 2.31842041 C-8.59869209 -0.54477391 -4.818575 -0.07232725 0 0 Z M81.99902344 11.45410156 C83.99902344 12.45410156 83.99902344 12.45410156 83.99902344 12.45410156 Z " fill="#06B5E9" transform="translate(199.0009765625,254.5458984375)"/>
<path d="M0 0 C8.27291269 0.06605458 16.26082854 1.35084966 24.41430664 2.66357422 C44.55545986 5.74465715 64.7868895 6.57206886 85.13500977 6.52685547 C87.3462783 6.52820999 89.55754654 6.53015697 91.76881409 6.53265381 C96.35941457 6.53556881 100.94993618 6.53142673 105.54052734 6.52197266 C111.34386126 6.5105856 117.14701169 6.51734632 122.95033932 6.52884483 C156.5719297 6.7249546 156.5719297 6.7249546 190.07641602 4.26123047 C190.85413361 4.17147949 191.6318512 4.08172852 192.43313599 3.98925781 C197.01355804 3.44670156 201.57624571 2.81348225 206.13891602 2.13623047 C227.3076798 -0.9713132 227.3076798 -0.9713132 233.07641602 2.26123047 C232.50796052 5.635524 231.55909698 7.1311736 228.95141602 9.32373047 C228.39196289 9.80970703 227.83250977 10.29568359 227.25610352 10.79638672 C221.51510551 14.6545843 215.75241077 15.92727704 209.01391602 16.82373047 C207.67055176 17.00814697 207.67055176 17.00814697 206.30004883 17.19628906 C193.28972091 18.87242595 180.17272616 19.6151785 167.07641602 20.26123047 C165.76574158 20.32638351 165.76574158 20.32638351 164.42858887 20.39285278 C147.3927498 21.21493571 130.3806396 21.46232584 113.32641602 21.44873047 C112.03313385 21.44845856 110.73985168 21.44818665 109.40737915 21.44790649 C80.76007093 21.42043644 51.80903668 21.35254524 23.32641602 17.88623047 C22.47587646 17.78463623 21.62533691 17.68304199 20.74902344 17.57836914 C12.20028778 16.33651907 4.68681996 12.79238479 -1.92358398 7.26123047 C-3.36108398 4.44873047 -3.36108398 4.44873047 -3.92358398 2.26123047 C-1.92358398 0.26123047 -1.92358398 0.26123047 0 0 Z " fill="#0064A3" transform="translate(124.923583984375,352.73876953125)"/>
<path d="M0 0 C5.62103499 4.01051373 10.9255527 8.72571062 12.7734375 15.61328125 C13.48461212 20.99788907 12.46877549 24.49658349 9.4453125 28.87890625 C5.3163166 33.16225714 -0.39289453 33.75231087 -6.1015625 33.98828125 C-16.36867127 33.6062493 -25.70824696 30.3900659 -32.89453125 22.8671875 C-36.50135619 18.00757183 -36.91143732 13.34249398 -36.65625 7.390625 C-36.0768291 3.645459 -34.74269071 1.41696697 -32.2265625 -1.38671875 C-31.7728125 -1.96421875 -31.3190625 -2.54171875 -30.8515625 -3.13671875 C-21.93601539 -9.99483191 -8.56132494 -5.33205325 0 0 Z " fill="#FC9707" transform="translate(138.2265625,293.38671875)"/>
<path d="M0 0 C4.22655008 3.38124006 6.96446258 7.06152944 7.94921875 12.46484375 C8.21586091 18.43211147 6.9834215 23.13409559 3.5 28 C-3.78729444 35.63430846 -13.75693179 37.91913373 -24 38.25 C-29.84481914 38.18655556 -33.36633664 36.84533047 -37.8125 33 C-40.86487345 29.38237221 -40.7873059 25.78680482 -40.70703125 21.26953125 C-40.17206257 15.40506328 -36.60925048 11.57707885 -32.53125 7.671875 C-23.11466694 -0.07869721 -11.93908334 -3.41116667 0 0 Z " fill="#FC9607" transform="translate(369.5,289)"/>
<path d="M0 0 C1.92248314 0.00090637 1.92248314 0.00090637 3.88380432 0.00183105 C5.28655116 0.00810411 6.68929674 0.0146638 8.09204102 0.02148438 C9.56253517 0.02527887 11.03302978 0.0288966 12.50352478 0.03234863 C28.7741478 0.08328537 45.04274653 0.32397919 61.31121826 0.57879639 C65.31560557 0.64095982 69.32003608 0.70021165 73.32446289 0.75976562 C81.08166735 0.87553166 88.83882124 0.99431405 96.59594727 1.11523438 C96.59594727 1.44523437 96.59594727 1.77523438 96.59594727 2.11523438 C95.51266647 2.11888 94.42938568 2.12252563 93.3132782 2.12628174 C83.11574396 2.16318637 72.91851298 2.22090911 62.72120953 2.29913712 C57.478352 2.33868496 52.23566428 2.3708375 46.99267578 2.38623047 C41.93503043 2.40134903 36.87785166 2.43570868 31.82041359 2.4835434 C29.88871117 2.4984069 27.95694215 2.50627822 26.02518272 2.50711823 C23.32389667 2.50947475 20.62391397 2.53644695 17.92285156 2.56933594 C17.12012314 2.56430557 16.31739471 2.55927521 15.49034119 2.55409241 C13.01116415 2.55574893 13.01116415 2.55574893 9.59594727 3.11523438 C8.60594727 4.43523437 7.61594727 5.75523437 6.59594727 7.11523438 C71.44094727 7.61023438 71.44094727 7.61023438 137.59594727 8.11523438 C137.59594727 8.44523437 137.59594727 8.77523438 137.59594727 9.11523438 C85.12594727 9.11523438 32.65594727 9.11523438 -21.40405273 9.11523438 C-21.40405273 8.45523437 -21.40405273 7.79523438 -21.40405273 7.11523438 C-20.08405273 7.11523438 -18.76405273 7.11523438 -17.40405273 7.11523438 C-17.34217773 6.49648438 -17.28030273 5.87773437 -17.21655273 5.24023438 C-16.40405273 3.11523438 -16.40405273 3.11523438 -14.15405273 1.92773438 C-9.34550339 0.50702661 -5.02030317 -0.00920523 0 0 Z " fill="#07C2F2" transform="translate(180.404052734375,372.884765625)"/>
<path d="M0 0 C0.66 0 1.32 0 2 0 C2.33 0.66 2.66 1.32 3 2 C3.66 2 4.32 2 5 2 C5.33 4.31 5.66 6.62 6 9 C34.71 9 63.42 9 93 9 C93.33 8.34 93.66 7.68 94 7 C94 7.66 94 8.32 94 9 C120.73 9 147.46 9 175 9 C175 9.33 175 9.66 175 10 C173.68869614 10.01030746 172.37739227 10.02061493 171.02635193 10.03123474 C158.42922705 10.13067022 145.83213345 10.23350205 133.23506069 10.33933926 C126.76487309 10.39359949 120.29468106 10.44681967 113.82446289 10.49731445 C85.99745458 10.71521932 58.17700017 10.98515056 30.35704041 11.67295837 C18.90185997 11.95174181 7.45854086 12.05477074 -4 12 C-3.342425 7.44166456 -2.22049017 4.05480813 0 0 Z " fill="#06C1F1" transform="translate(136,228)"/>
<path d="M0 0 C1.72926874 0.31193464 3.45841044 0.62457362 5.1875 0.9375 C6.15042969 1.11152344 7.11335937 1.28554688 8.10546875 1.46484375 C10.74239972 1.9523735 13.3719905 2.46671105 16 3 C16 3.33 16 3.66 16 4 C14.865625 4.12375 13.73125 4.2475 12.5625 4.375 C10.7990625 4.684375 10.7990625 4.684375 9 5 C8.67 5.66 8.34 6.32 8 7 C7.01 7 6.02 7 5 7 C5.350625 7.61875 5.70125 8.2375 6.0625 8.875 C6.371875 9.57625 6.68125 10.2775 7 11 C6.67 11.66 6.34 12.32 6 13 C11.61 13 17.22 13 23 13 C23 13.33 23 13.66 23 14 C18.93751511 14.02909769 14.87505714 14.04683174 10.8125 14.0625 C9.08676758 14.07506836 9.08676758 14.07506836 7.32617188 14.08789062 C6.21435547 14.09111328 5.10253906 14.09433594 3.95703125 14.09765625 C2.93585205 14.10289307 1.91467285 14.10812988 0.86254883 14.11352539 C-1.86901616 14.00519467 -4.34169374 13.61706868 -7 13 C-7 12.67 -7 12.34 -7 12 C-5.88625 11.896875 -4.7725 11.79375 -3.625 11.6875 C-2.42875 11.460625 -1.2325 11.23375 0 11 C0.66 10.01 1.32 9.02 2 8 C1.01 8 0.02 8 -1 8 C-0.67 5.36 -0.34 2.72 0 0 Z " fill="#07BCEE" transform="translate(133,367)"/>
<path d="M0 0 C2.75328098 2.37783357 3.96944911 4.51198161 5 8 C5.25 11.6875 5.25 11.6875 5 15 C4.34 15.66 3.68 16.32 3 17 C2.67 15.68 2.34 14.36 2 13 C0.35 12.67 -1.3 12.34 -3 12 C-3 11.34 -3 10.68 -3 10 C-3.66 9.67 -4.32 9.34 -5 9 C-4.34 8.67 -3.68 8.34 -3 8 C-3.33 6.35 -3.66 4.7 -4 3 C-3.34 3 -2.68 3 -2 3 C-2 2.34 -2 1.68 -2 1 C-1.34 0.67 -0.68 0.34 0 0 Z " fill="#FA9909" transform="translate(146,301)"/>
<path d="M0 0 C0 1.66666667 0 3.33333333 0 5 C-0.598125 5.0825 -1.19625 5.165 -1.8125 5.25 C-4.15070487 5.82087979 -4.15070487 5.82087979 -5.4375 7.9375 C-7.38142352 10.50347905 -9.02432777 10.86641058 -12 12 C-15.56858578 14.50698785 -15.56858578 14.50698785 -18 18 C-10.41 18 -2.82 18 5 18 C5 18.33 5 18.66 5 19 C-3.91 19 -12.82 19 -22 19 C-15.25 11.125 -15.25 11.125 -11.9140625 8.69140625 C-11.21152344 8.17255859 -10.50898438 7.65371094 -9.78515625 7.11914062 C-9.07230469 6.60544922 -8.35945312 6.09175781 -7.625 5.5625 C-6.88894531 5.02173828 -6.15289062 4.48097656 -5.39453125 3.92382812 C-3.60168497 2.60829806 -1.80365684 1.30064625 0 0 Z " fill="#FD880B" transform="translate(264,128)"/>
<path d="M0 0 C10.23 0 20.46 0 31 0 C27.51232612 1.74383694 24.62049949 2.7442231 20.875 3.6875 C19.82054687 3.95949219 18.76609375 4.23148437 17.6796875 4.51171875 C15 5 15 5 13 4 C13 3.01 13 2.02 13 1 C8.71 1 4.42 1 0 1 C0 0.67 0 0.34 0 0 Z " fill="#FC901A" transform="translate(310,77)"/>
<path d="M0 0 C0.66 0.33 1.32 0.66 2 1 C2 1.66 2 2.32 2 3 C2.99 3 3.98 3 5 3 C3.9024777 5.99324263 3.32317108 6.84610901 0.375 8.25 C-0.40875 8.4975 -1.1925 8.745 -2 9 C-1.67 7.35 -1.34 5.7 -1 4 C-7.11012686 9.62774843 -8.18858463 14.02108219 -9 22 C-9.33 22 -9.66 22 -10 22 C-10.3471158 16.21473661 -10.34796623 11.96794988 -7 7 C-4.76450846 4.55586259 -2.4298327 2.25009165 0 0 Z " fill="#F3980E" transform="translate(339,295)"/>
<path d="M0 0 C0.350625 0.49371094 0.70125 0.98742187 1.0625 1.49609375 C3.97599208 3.7575745 6.37929222 3.21713439 10 3.0625 C16.68630339 2.79086892 16.68630339 2.79086892 20 5 C8.12 5 -3.76 5 -16 5 C-16 4.34 -16 3.68 -16 3 C-15.01257813 3.03480469 -14.02515625 3.06960938 -13.0078125 3.10546875 C-11.08582031 3.14607422 -11.08582031 3.14607422 -9.125 3.1875 C-7.84882813 3.22230469 -6.57265625 3.25710938 -5.2578125 3.29296875 C-4.18273437 3.19628906 -3.10765625 3.09960938 -2 3 C-1.34 2.01 -0.68 1.02 0 0 Z " fill="#06BEEF" transform="translate(258,297)"/>
<path d="M0 0 C1.53515478 0.00502957 3.07031116 0.00958988 4.60546875 0.01367188 C8.3203467 0.02455161 12.03516259 0.04173423 15.75 0.0625 C15.75 0.3925 15.75 0.7225 15.75 1.0625 C15.10973877 1.08755615 14.46947754 1.1126123 13.80981445 1.13842773 C10.89386274 1.2548546 7.9781971 1.37736867 5.0625 1.5 C4.05509766 1.53931641 3.04769531 1.57863281 2.00976562 1.61914062 C1.03330078 1.66103516 0.05683594 1.70292969 -0.94921875 1.74609375 C-1.84471436 1.78275146 -2.74020996 1.81940918 -3.6628418 1.85717773 C-6.25977745 2.00945111 -6.25977745 2.00945111 -8.8046875 2.58984375 C-11.22575478 3.05781362 -13.22330949 3.10019939 -15.67578125 2.94140625 C-16.47177734 2.89306641 -17.26777344 2.84472656 -18.08789062 2.79492188 C-18.90451172 2.73884766 -19.72113281 2.68277344 -20.5625 2.625 C-21.39845703 2.57279297 -22.23441406 2.52058594 -23.09570312 2.46679688 C-25.14750789 2.33782629 -27.19881306 2.20094979 -29.25 2.0625 C-29.25 1.7325 -29.25 1.4025 -29.25 1.0625 C-19.48016673 0.0143817 -9.80901886 -0.05652077 0 0 Z M-13.25 3.0625 C-11.25 4.0625 -11.25 4.0625 -11.25 4.0625 Z " fill="#07C7F6" transform="translate(156.25,255.9375)"/>
<path d="M0 0 C5.61 0 11.22 0 17 0 C17 0.33 17 0.66 17 1 C16.15695312 1.04898437 15.31390625 1.09796875 14.4453125 1.1484375 C13.34960938 1.22320312 12.25390625 1.29796875 11.125 1.375 C9.48917969 1.47941406 9.48917969 1.47941406 7.8203125 1.5859375 C4.86953526 1.73253491 4.86953526 1.73253491 3 4 C3.33 4.99 3.66 5.98 4 7 C3 8 3 8 -0.0625 8.0625 C-1.031875 8.041875 -2.00125 8.02125 -3 8 C-2.34 7.34 -1.68 6.68 -1 6 C-1.66 5.34 -2.32 4.68 -3 4 C-3 3.34 -3 2.68 -3 2 C-2.01 2 -1.02 2 0 2 C0 1.34 0 0.68 0 0 Z " fill="#06BCEE" transform="translate(285,373)"/>
<path d="M0 0 C0.33 0.66 0.66 1.32 1 2 C1.66 2.33 2.32 2.66 3 3 C2.34 4.32 1.68 5.64 1 7 C0.34 6.67 -0.32 6.34 -1 6 C-1.33 14.25 -1.66 22.5 -2 31 C-2.33 31 -2.66 31 -3 31 C-3.02896822 26.56251365 -3.04678788 22.12505153 -3.0625 17.6875 C-3.07087891 16.42486328 -3.07925781 15.16222656 -3.08789062 13.86132812 C-3.09111328 12.65283203 -3.09433594 11.44433594 -3.09765625 10.19921875 C-3.10289307 9.08377686 -3.10812988 7.96833496 -3.11352539 6.8190918 C-3 4 -3 4 -2 1 C-1.34 0.67 -0.68 0.34 0 0 Z " fill="#2D82B4" transform="translate(450,223)"/>
<path d="M0 0 C0.79921875 0.02707031 1.5984375 0.05414063 2.421875 0.08203125 C3.02515625 0.11683594 3.6284375 0.15164063 4.25 0.1875 C4.25 0.8475 4.25 1.5075 4.25 2.1875 C5.095625 2.001875 5.94125 1.81625 6.8125 1.625 C10.56335842 1.14761802 13.56121077 1.39187879 17.25 2.1875 C17.58 2.8475 17.91 3.5075 18.25 4.1875 C9.34 3.8575 0.43 3.5275 -8.75 3.1875 C-4.25 -0.1875 -4.25 -0.1875 0 0 Z " fill="#06C1F2" transform="translate(287.75,298.8125)"/>
<path d="M0 0 C0.33 0.66 0.66 1.32 1 2 C-6.26 2 -13.52 2 -21 2 C-21 1.34 -21 0.68 -21 0 C-6.69875425 -1.41704417 -6.69875425 -1.41704417 0 0 Z " fill="#06BFF0" transform="translate(226,300)"/>
<path d="M0 0 C5.28 0 10.56 0 16 0 C16 0.99 16 1.98 16 3 C16.66 3.33 17.32 3.66 18 4 C14.625 4.625 14.625 4.625 11 5 C10.34 4.34 9.68 3.68 9 3 C9.66 2.67 10.32 2.34 11 2 C7.37 1.67 3.74 1.34 0 1 C0 0.67 0 0.34 0 0 Z " fill="#FD8602" transform="translate(307,78)"/>
<path d="M0 0 C0.66 0.33 1.32 0.66 2 1 C1.67 1.66 1.34 2.32 1 3 C8.59 3 16.18 3 24 3 C24 3.33 24 3.66 24 4 C15.09 4 6.18 4 -3 4 C-2.01 2.68 -1.02 1.36 0 0 Z " fill="#FD7901" transform="translate(245,143)"/>
<path d="M0 0 C-2.97 0.66 -5.94 1.32 -9 2 C-9 2.66 -9 3.32 -9 4 C-11.64 4.33 -14.28 4.66 -17 5 C-17.33 4.34 -17.66 3.68 -18 3 C-15.75376301 2.30030318 -13.50283586 1.61564957 -11.25 0.9375 C-9.99703125 0.55464844 -8.7440625 0.17179687 -7.453125 -0.22265625 C-4 -1 -4 -1 0 0 Z " fill="#FD890B" transform="translate(241,91)"/>
<path d="M0 0 C0.66 0.66 1.32 1.32 2 2 C1.01 2.99 0.02 3.98 -1 5 C-1.99 4.67 -2.98 4.34 -4 4 C-3 2 -3 2 0 0 Z M-3 5 C-2.34 5 -1.68 5 -1 5 C-1 5.66 -1 6.32 -1 7 C-0.01 7.66 0.98 8.32 2 9 C-1.3 9 -4.6 9 -8 9 C-6.68 8.34 -5.36 7.68 -4 7 C-3.67 6.34 -3.34 5.68 -3 5 Z " fill="#E99B1C" transform="translate(135,318)"/>
<path d="M0 0 C1.875 0.3125 1.875 0.3125 4 1 C4.66 1.99 5.32 2.98 6 4 C2.04 5.98 2.04 5.98 -2 8 C-2 6 -2 6 0 4 C0 2.68 0 1.36 0 0 Z " fill="#EE9013" transform="translate(382,92)"/>
<path d="M0 0 C6.27 0 12.54 0 19 0 C19 0.33 19 0.66 19 1 C18.31292969 1.06058594 17.62585938 1.12117187 16.91796875 1.18359375 C15.56638672 1.30927734 15.56638672 1.30927734 14.1875 1.4375 C12.84751953 1.55931641 12.84751953 1.55931641 11.48046875 1.68359375 C8.87256441 1.93489767 8.87256441 1.93489767 6 3 C2.8125 2.0625 2.8125 2.0625 0 1 C0 0.67 0 0.34 0 0 Z " fill="#04A9DD" transform="translate(263,180)"/>
<path d="M0 0 C0.66 1.32 1.32 2.64 2 4 C-0.64 6.31 -3.28 8.62 -6 11 C-6 7.39426104 -5.18292538 6.58663434 -3 3.8125 C-2.443125 3.09707031 -1.88625 2.38164063 -1.3125 1.64453125 C-0.879375 1.10183594 -0.44625 0.55914062 0 0 Z " fill="#065599" transform="translate(53,101)"/>
<path d="M0 0 C0.33 0.66 0.66 1.32 1 2 C0.06553465 4.03144641 -0.93224776 6.03533587 -2 8 C-1.34 8.33 -0.68 8.66 0 9 C-0.99 9.33 -1.98 9.66 -3 10 C-3 10.66 -3 11.32 -3 12 C-3.99 12.33 -4.98 12.66 -6 13 C-4.58707905 8.1725201 -2.57025846 4.2837641 0 0 Z " fill="#045296" transform="translate(37,125)"/>
<path d="M0 0 C0.66 0.33 1.32 0.66 2 1 C2.125 4.375 2.125 4.375 2 8 C1.34 8.66 0.68 9.32 0 10 C-0.185625 9.071875 -0.185625 9.071875 -0.375 8.125 C-0.87197356 5.80879168 -0.87197356 5.80879168 -3 4 C-2.34 3.34 -1.68 2.68 -1 2 C-0.67 1.34 -0.34 0.68 0 0 Z " fill="#DE9825" transform="translate(149,308)"/>
<path d="M0 0 C-0.99 0.66 -1.98 1.32 -3 2 C-3.99 1.67 -4.98 1.34 -6 1 C-6.33 1.99 -6.66 2.98 -7 4 C-7 3.34 -7 2.68 -7 2 C-8.98 2.33 -10.96 2.66 -13 3 C-12.67 2.34 -12.34 1.68 -12 1 C-4.35711773 -1.38056989 -4.35711773 -1.38056989 0 0 Z " fill="#095799" transform="translate(184,17)"/>
<path d="M0 0 C1.98 0 3.96 0 6 0 C6.33 1.32 6.66 2.64 7 4 C4.36 3.67 1.72 3.34 -1 3 C-0.67 2.01 -0.34 1.02 0 0 Z " fill="#EF9513" transform="translate(115,287)"/>
<path d="M0 0 C0.66 0.99 1.32 1.98 2 3 C1.01 3.33 0.02 3.66 -1 4 C-1.69258229 5.99117408 -2.35747635 7.9921136 -3 10 C-4.625 11.875 -4.625 11.875 -6 13 C-4.58707905 8.1725201 -2.57025846 4.2837641 0 0 Z " fill="#024D94" transform="translate(130,196)"/>
<path d="M0 0 C0.66 0.99 1.32 1.98 2 3 C1.34 4.32 0.68 5.64 0 7 C-0.66 7 -1.32 7 -2 7 C-2.66 8.32 -3.32 9.64 -4 11 C-3.39301257 6.87248551 -1.96189209 3.6678852 0 0 Z " fill="#035499" transform="translate(30,138)"/>
<path d="M0 0 C0.33 0.99 0.66 1.98 1 3 C0.195625 3.763125 -0.60875 4.52625 -1.4375 5.3125 C-4.16799024 7.79430898 -4.16799024 7.79430898 -5 11 C-5.66 11 -6.32 11 -7 11 C-5.5140084 6.40693504 -3.14985318 3.56430755 0 0 Z " fill="#044E95" transform="translate(143,176)"/>
<path d="M0 0 C-5.17578125 3.22265625 -5.17578125 3.22265625 -7 4 C-7.99 3.67 -8.98 3.34 -10 3 C-9.01 2.67 -8.02 2.34 -7 2 C-7 1.34 -7 0.68 -7 0 C-3.98968256 -0.93423645 -3.13349732 -1.04449911 0 0 Z " fill="#EE9714" transform="translate(370,320)"/>
<path d="M0 0 C0.66 0.33 1.32 0.66 2 1 C1.67 1.99 1.34 2.98 1 4 C0.01 4.33 -0.98 4.66 -2 5 C-3.66710346 6.49985609 -3.66710346 6.49985609 -5 8 C-5 5 -5 5 -2.5 2.3125 C-1.675 1.549375 -0.85 0.78625 0 0 Z " fill="#F49B0D" transform="translate(339,295)"/>
<path d="M0 0 C0.33 0 0.66 0 1 0 C1 3.3 1 6.6 1 10 C0.01 10 -0.98 10 -2 10 C-1.34 6.7 -0.68 3.4 0 0 Z " fill="#F09C11" transform="translate(376,299)"/>
<path d="M0 0 C2.64 0 5.28 0 8 0 C6.25 1.5625 6.25 1.5625 4 3 C1.75 2.6875 1.75 2.6875 0 2 C0 1.34 0 0.68 0 0 Z " fill="#F29B11" transform="translate(138,323)"/>
</svg>
